<svg width="136" height="24" viewBox="0 0 136 24" fill="none" xmlns="http://www.w3.org/2000/svg">
<path d="M134.54 6.42C134.421 5.94541 134.179 5.51057 133.839 5.15941C133.498 4.80824 133.071 4.55318 132.6 4.42C130.88 4 124 4 124 4C124 4 117.12 4 115.4 4.46C114.929 4.59318 114.502 4.84824 114.161 5.19941C113.821 5.55057 113.579 5.98541 113.46 6.46C113.145 8.20556 112.991 9.97631 113 11.75C112.989 13.537 113.143 15.3213 113.46 17.08C113.591 17.5398 113.838 17.9581 114.178 18.2945C114.518 18.6308 114.939 18.8738 115.4 19C117.12 19.46 124 19.46 124 19.46C124 19.46 130.88 19.46 132.6 19C133.071 18.8668 133.498 18.6118 133.839 18.2606C134.179 17.9094 134.421 17.4746 134.54 17C134.852 15.2676 135.006 13.5103 135 11.75C135.011 9.96295 134.857 8.1787 134.54 6.42Z" stroke="#FFFAF1" stroke-width="2" stroke-linecap="round" stroke-linejoin="round"/>
<path d="M121.75 15.02L127.5 11.75L121.75 8.47998V15.02Z" stroke="#FFFAF1" stroke-width="2" stroke-linecap="round" stroke-linejoin="round"/>
<path d="M74 2H71C69.6739 2 68.4021 2.52678 67.4645 3.46447C66.5268 4.40215 66 5.67392 66 7V10H63V14H66V22H70V14H73L74 10H70V7C70 6.73478 70.1054 6.48043 70.2929 6.29289C70.4804 6.10536 70.7348 6 71 6H74V2Z" stroke="#FFFAF1" stroke-width="2" stroke-linecap="round" stroke-linejoin="round"/>
<path d="M17 2H7C4.23858 2 2 4.23858 2 7V17C2 19.7614 4.23858 22 7 22H17C19.7614 22 22 19.7614 22 17V7C22 4.23858 19.7614 2 17 2Z" stroke="#FFFAF1" stroke-width="2" stroke-linecap="round" stroke-linejoin="round"/>
<path d="M16 11.3698C16.1234 12.2021 15.9812 13.052 15.5937 13.7988C15.2062 14.5456 14.5931 15.1512 13.8416 15.5295C13.0901 15.9077 12.2384 16.0394 11.4077 15.9057C10.5771 15.7721 9.80971 15.3799 9.21479 14.785C8.61987 14.1901 8.22768 13.4227 8.09402 12.592C7.96035 11.7614 8.09202 10.9097 8.47028 10.1582C8.84854 9.40667 9.45414 8.79355 10.2009 8.40605C10.9477 8.01856 11.7977 7.8764 12.63 7.99981C13.4789 8.1257 14.2648 8.52128 14.8716 9.12812C15.4785 9.73496 15.8741 10.5209 16 11.3698Z" stroke="#FFFAF1" stroke-width="2" stroke-linecap="round" stroke-linejoin="round"/>
<path d="M17.5 6.5H17.51" stroke="#FFFAF1" stroke-width="2" stroke-linecap="round" stroke-linejoin="round"/>
</svg>
